<svg width="214" height="209" viewBox="0 0 214 209" fill="none" xmlns="http://www.w3.org/2000/svg">
<g clip-path="url(#clip0_739_4183)">
<path d="M135.858 47.0035H78.1943C76.8803 47.0051 75.6205 47.5281 74.6913 48.4577C73.7622 49.3874 73.2394 50.6478 73.2378 51.9625V180.188L72.577 180.389L58.4311 184.724C57.7607 184.928 57.0366 184.858 56.4177 184.529C55.7989 184.2 55.3358 183.639 55.1302 182.968L13.0528 45.4529C12.8481 44.7822 12.9179 44.0575 13.2469 43.4382C13.5759 42.8189 14.1372 42.3556 14.8075 42.1502L36.6062 35.472L99.8014 16.1183L121.6 9.4401C121.932 9.33794 122.28 9.30225 122.626 9.33505C122.971 9.36785 123.307 9.46851 123.614 9.63126C123.92 9.79401 124.192 10.0157 124.413 10.2835C124.634 10.5514 124.8 10.8602 124.901 11.1923L135.656 46.3423L135.858 47.0035Z" fill="#F2F2F2"/>
<path d="M148.437 46.3424L135.474 3.97869C135.258 3.27283 134.906 2.6164 134.437 2.04693C133.967 1.47745 133.39 1.00609 132.739 0.659764C132.087 0.313442 131.374 0.0989463 130.64 0.0285443C129.905 -0.0418576 129.164 0.0332131 128.459 0.249459L97.8114 9.63534L34.6196 28.9923L3.97201 38.3815C2.54828 38.8189 1.35618 39.8036 0.657357 41.1195C-0.0414615 42.4354 -0.1899 43.9749 0.244629 45.4002L44.549 190.182C44.902 191.333 45.6143 192.34 46.5813 193.056C47.5483 193.771 48.7191 194.158 49.922 194.159C50.4787 194.16 51.0323 194.076 51.5641 193.911L72.573 187.478L73.2339 187.273V186.582L72.573 186.784L51.3692 193.28C50.1125 193.663 48.7552 193.532 47.5949 192.915C46.4347 192.299 45.5663 191.247 45.1802 189.99L0.879195 45.2052C0.687904 44.5826 0.621234 43.9284 0.683001 43.28C0.744767 42.6317 0.933751 42.0018 1.23914 41.4267C1.54454 40.8515 1.96034 40.3422 2.46273 39.928C2.96511 39.5138 3.54422 39.2029 4.1669 39.0129L34.8145 29.6237L98.0065 10.2701L128.654 0.880921C129.126 0.736711 129.617 0.663181 130.111 0.662721C131.171 0.665101 132.202 1.00693 133.054 1.63815C133.905 2.26936 134.532 3.15679 134.843 4.17044L147.746 46.3425L147.951 47.0037H148.639L148.437 46.3424Z" fill="#3F3D56"/>
<path d="M40.5366 42.2582C39.8997 42.2578 39.2798 42.0531 38.7677 41.6743C38.2556 41.2955 37.8783 40.7625 37.6911 40.1534L33.435 26.2442C33.3207 25.8706 33.281 25.4781 33.3183 25.0891C33.3555 24.7002 33.469 24.3223 33.6522 23.9773C33.8354 23.6322 34.0848 23.3266 34.3861 23.078C34.6874 22.8293 35.0347 22.6425 35.4081 22.5281L93.5441 4.7205C94.2983 4.49024 95.1129 4.56878 95.8093 4.93885C96.5056 5.30893 97.0268 5.94032 97.2584 6.69445L101.514 20.6038C101.744 21.3583 101.666 22.1734 101.296 22.87C100.926 23.5667 100.295 24.0882 99.5416 24.32L41.4054 42.1277C41.1239 42.2141 40.8311 42.2581 40.5366 42.2582Z" fill="#00D563"/>
<path d="M62.8352 14.8619C66.4851 14.8619 69.4439 11.9016 69.4439 8.2498C69.4439 4.59804 66.4851 1.6377 62.8352 1.6377C59.1854 1.6377 56.2266 4.59804 56.2266 8.2498C56.2266 11.9016 59.1854 14.8619 62.8352 14.8619Z" fill="#00D563"/>
<path d="M62.8332 12.4375C65.1444 12.4375 67.018 10.5629 67.018 8.25047C67.018 5.93806 65.1444 4.06348 62.8332 4.06348C60.522 4.06348 58.6484 5.93806 58.6484 8.25047C58.6484 10.5629 60.522 12.4375 62.8332 12.4375Z" fill="white"/>
<path d="M199.128 192.47H87.4415C86.6968 192.469 85.9829 192.172 85.4564 191.645C84.9298 191.119 84.6337 190.404 84.6328 189.659V55.7642C84.6336 55.0192 84.9298 54.3049 85.4564 53.7781C85.9829 53.2513 86.6968 52.9549 87.4415 52.9541H199.128C199.872 52.955 200.586 53.2513 201.113 53.7781C201.639 54.3049 201.935 55.0192 201.936 55.7642V189.659C201.935 190.404 201.639 191.119 201.113 191.645C200.586 192.172 199.872 192.469 199.128 192.47Z" fill="#E6E6E6"/>
<path d="M147.751 46.3418H78.1955C76.7063 46.3439 75.2787 46.9367 74.2257 47.9903C73.1727 49.0438 72.5802 50.4721 72.5781 51.9621V186.783L73.239 186.581V51.9621C73.2406 50.6473 73.7633 49.3869 74.6925 48.4573C75.6217 47.5276 76.8814 47.0046 78.1955 47.003H147.956L147.751 46.3418ZM208.386 46.3418H78.1955C76.7063 46.3439 75.2787 46.9367 74.2257 47.9903C73.1727 49.0438 72.5802 50.4721 72.5781 51.9621V203.379C72.5802 204.869 73.1727 206.298 74.2257 207.351C75.2787 208.405 76.7063 208.997 78.1955 209H208.386C209.875 208.997 211.303 208.405 212.356 207.351C213.409 206.298 214.001 204.869 214.003 203.379V51.9621C214.001 50.4721 213.409 49.0438 212.356 47.9903C211.303 46.9367 209.875 46.3439 208.386 46.3418ZM213.342 203.379C213.341 204.694 212.818 205.954 211.889 206.884C210.96 207.814 209.7 208.337 208.386 208.338H78.1955C76.8814 208.337 75.6217 207.814 74.6925 206.884C73.7633 205.954 73.2406 204.694 73.239 203.379V51.9621C73.2406 50.6473 73.7633 49.3869 74.6925 48.4573C75.6217 47.5276 76.8814 47.0046 78.1955 47.003H208.386C209.7 47.0046 210.96 47.5276 211.889 48.4573C212.818 49.3869 213.341 50.6473 213.342 51.9621V203.379Z" fill="#3F3D56"/>
<path d="M173.688 60.8891H112.888C112.1 60.8882 111.344 60.5745 110.786 60.0167C110.229 59.4588 109.915 58.7025 109.914 57.9137V43.367C109.915 42.5782 110.229 41.8219 110.786 41.2641C111.344 40.7063 112.1 40.3925 112.888 40.3916H173.688C174.476 40.3925 175.232 40.7063 175.789 41.2641C176.347 41.8219 176.661 42.5782 176.661 43.367V57.9137C176.661 58.7025 176.347 59.4588 175.789 60.0167C175.232 60.5745 174.476 60.8882 173.688 60.8891Z" fill="#00D563"/>
<path d="M143.288 41.3834C146.938 41.3834 149.897 38.423 149.897 34.7713C149.897 31.1195 146.938 28.1592 143.288 28.1592C139.638 28.1592 136.68 31.1195 136.68 34.7713C136.68 38.423 139.638 41.3834 143.288 41.3834Z" fill="#00D563"/>
<path d="M143.291 38.7979C145.514 38.7979 147.316 36.9948 147.316 34.7706C147.316 32.5463 145.514 30.7432 143.291 30.7432C141.068 30.7432 139.266 32.5463 139.266 34.7706C139.266 36.9948 141.068 38.7979 143.291 38.7979Z" fill="white"/>
</g>
<defs>
<clipPath id="clip0_739_4183">
<rect width="214" height="209" fill="white"/>
</clipPath>
</defs>
</svg>
