<svg width="44" height="44" viewBox="0 0 44 44" fill="none" xmlns="http://www.w3.org/2000/svg">
<path d="M33.5875 15.7266L33.7508 24.8531C33.7508 25.1023 33.6305 25.3516 33.4156 25.4805C33.2008 25.618 32.9344 25.6438 32.7023 25.5406L31.1555 24.8359L29.6086 26.3914C29.4625 26.5289 29.2734 26.5977 29.0758 26.5977C28.9812 26.5977 28.8867 26.5805 28.7922 26.5375C28.5086 26.4258 28.3367 26.1594 28.3367 25.8672L28.2164 17.9352L22.4844 20.307V38.3539L39.5 31.3242V13.2773L33.5875 15.7266Z" fill="#006C9C"/>
<path d="M29.3 25.3086L30.5719 24.0367C30.7867 23.8219 31.1219 23.7531 31.4055 23.8906L32.7547 24.5094L32.6 16.1305L29.1797 17.5399L29.3 25.3086Z" fill="#006C9C"/>
<path d="M38.7156 12.5469L22.0008 5.64612L17.8672 7.35627L33.1125 14.8672L38.7156 12.5469Z" fill="#006C9C"/>
<path d="M31.8992 15.3657L16.6625 7.85474L12.9844 9.37583L28.7023 16.6891L31.8992 15.3657Z" fill="#006C9C"/>
<path d="M11.7609 9.87427L5.28125 12.5469L21.9961 19.4563L27.4789 17.1961L11.7609 9.87427Z" fill="#006C9C"/>
<path d="M4.49219 31.3414L21.5078 38.3539V20.3156L4.49219 13.2773V31.3414ZM6.8125 27.3969C6.89844 27.1477 7.16484 27.0016 7.43125 27.0789L10.0609 27.9297C10.3102 28.0156 10.4563 28.282 10.3789 28.5484C10.3016 28.7633 10.1125 28.8922 9.90625 28.8922C9.86328 28.8922 9.80312 28.8836 9.76016 28.8664L7.13047 28.0156C6.88125 27.9297 6.73516 27.6633 6.8125 27.3969ZM6.68359 29.6828C6.76953 29.4336 7.03594 29.2875 7.30234 29.3648L9.93203 30.2156C10.1813 30.3016 10.3273 30.568 10.25 30.8344C10.1813 31.0492 9.99219 31.1781 9.78594 31.1781C9.74297 31.1781 9.68281 31.1695 9.63984 31.1523L7.00156 30.3016C6.75234 30.2156 6.60625 29.9492 6.68359 29.6828Z" fill="#006C9C"/>
</svg>
