<svg width="38" height="38" viewBox="0 0 38 38" fill="none" xmlns="http://www.w3.org/2000/svg">
<path d="M15.3307 33.2046V27.0666C15.3307 24.7145 17.1549 22.8646 19.8536 21.8086C18.1132 21.1614 16.2709 20.831 14.4141 20.8333C10.9491 20.8333 7.74806 21.9645 5.16123 23.8766C5.96333 26.1451 7.31006 28.1819 9.08319 29.8083C10.8563 31.4347 13.0016 32.601 15.3307 33.2046ZM31.6107 26.491C30.8866 25.5138 28.4757 24.5 25.4141 24.5C21.7364 24.5 18.9974 25.9611 18.9974 27.0666V33.6666C21.5418 33.668 24.0427 33.0072 26.2543 31.749C28.4658 30.4909 30.3118 28.6788 31.6107 26.491ZM14.5057 18.0833C15.5997 18.0833 16.649 17.6487 17.4225 16.8751C18.1961 16.1015 18.6307 15.0523 18.6307 13.9583C18.6307 12.8643 18.1961 11.8151 17.4225 11.0415C16.649 10.2679 15.5997 9.83329 14.5057 9.83329C13.4117 9.83329 12.3625 10.2679 11.5889 11.0415C10.8153 11.8151 10.3807 12.8643 10.3807 13.9583C10.3807 15.0523 10.8153 16.1015 11.5889 16.8751C12.3625 17.6487 13.4117 18.0833 14.5057 18.0833ZM25.4141 19.9166C26.3865 19.9166 27.3192 19.5303 28.0068 18.8427C28.6944 18.1551 29.0807 17.2224 29.0807 16.25C29.0807 15.2775 28.6944 14.3449 28.0068 13.6572C27.3192 12.9696 26.3865 12.5833 25.4141 12.5833C24.4416 12.5833 23.509 12.9696 22.8213 13.6572C22.1337 14.3449 21.7474 15.2775 21.7474 16.25C21.7474 17.2224 22.1337 18.1551 22.8213 18.8427C23.509 19.5303 24.4416 19.9166 25.4141 19.9166ZM18.9974 37.3333C8.8719 37.3333 0.664062 29.1255 0.664062 19C0.664062 8.87446 8.8719 0.666626 18.9974 0.666626C29.1229 0.666626 37.3307 8.87446 37.3307 19C37.3307 29.1255 29.1229 37.3333 18.9974 37.3333Z" fill="#007B55"/>
</svg>
